<?xml version="1.0" encoding="utf-8"?>
<!-- Generator: Adobe Illustrator 17.1.0, SVG Export Plug-In . SVG Version: 6.00 Build 0)  -->
<!DOCTYPE svg PUBLIC "-//W3C//DTD SVG 1.1//EN" "http://www.w3.org/Graphics/SVG/1.1/DTD/svg11.dtd">
<svg version="1.1" id="Layer_1" xmlns="http://www.w3.org/2000/svg" xmlns:xlink="http://www.w3.org/1999/xlink" x="0px" y="0px"
	 viewBox="0 0 58 46" enable-background="new 0 0 58 46" xml:space="preserve">
<path fill-rule="evenodd" clip-rule="evenodd" fill="none" d="M395-172v-324l189,324H395z"/>
<path fill="#FFFFFF" d="M58,27v-4.1h0c0-1.1-0.5-2.6-1.8-4.9C54,14.5,48.9,5.4,48.9,5.4C47.1,2.7,45.3,0,40.8,0H29.3h-0.7H17.2
	c-4.5,0-6.3,2.7-8.2,5.4c0,0-5.1,9-7.2,12.6C0.5,20.2,0,21.8,0,22.8h0v4.2V28v12.6c0,3,2.4,5.4,5.4,5.4h47.1c3,0,5.4-2.4,5.4-5.4
	L58,27C58,27,58,27,58,27z M4.9,19.9c2-3.4,6.6-11.4,7.2-12.6c1.8-2.6,2.6-3.7,5.1-3.7h11.4h0.7h11.4c2.5,0,3.3,1.1,5.1,3.7
	c0.6,1.1,5.2,9.2,7.2,12.6c0.4,0.7,0.7,1.3,0.9,1.8c-0.1,0-0.1,0-0.2,0c-0.2,0-0.4,0-0.6,0c-0.2,0-0.4,0-0.6,0h0h0H40.6H39
	c-1,0-1.6,0.3-1.8,0.9l-2.7,7.2c-0.5,1.1-1.1,1.8-2.7,1.8h-5.4c-1.9,0-2.4-0.9-2.7-1.8l-2.7-7.2c-0.4-0.9-1.4-0.9-1.8-0.9h-1.2H5.4
	c-0.2,0-0.4,0-0.6,0c-0.2,0-0.4,0-0.6,0c-0.1,0-0.1,0-0.2,0C4.2,21.2,4.5,20.6,4.9,19.9z M54.4,27.1v1.2v12.3c0,1-0.8,1.8-1.8,1.8
	H5.4c-1,0-1.8-0.8-1.8-1.8V28.5v-1.5v-1.8h1.7c0,0,0,0,0.1,0H18l2.2,5.8l0,0l0,0c1.1,2.7,3.1,4.1,6.1,4.1h5.4c2.7,0,4.7-1.3,6-3.8
	l0.1-0.2l0.1-0.2l2.2-5.8h12.1h0.5c0,0,0,0,0,0h1.8V27.1z"/>
<path fill="#FFFFFF" d="M18.1,10.8h21.7c1,0,1.8-0.8,1.8-1.8c0-1-0.8-1.8-1.8-1.8H18.1c-1,0-1.8,0.8-1.8,1.8
	C16.3,10,17.1,10.8,18.1,10.8z"/>
<path fill="#FFFFFF" d="M14.5,18.1h29c1,0,1.8-0.8,1.8-1.8c0-1-0.8-1.8-1.8-1.8h-29c-1,0-1.8,0.8-1.8,1.8
	C12.7,17.2,13.5,18.1,14.5,18.1z"/>
</svg>
