<?xml version="1.0" encoding="utf-8"?>
<!-- Generator: Adobe Illustrator 17.1.0, SVG Export Plug-In . SVG Version: 6.00 Build 0)  -->
<!DOCTYPE svg PUBLIC "-//W3C//DTD SVG 1.1//EN" "http://www.w3.org/Graphics/SVG/1.1/DTD/svg11.dtd">
<svg version="1.1" id="Layer_1" xmlns="http://www.w3.org/2000/svg" xmlns:xlink="http://www.w3.org/1999/xlink" x="0px" y="0px"
	 viewBox="0 0 50 62" enable-background="new 0 0 50 62" xml:space="preserve">
<path fill-rule="evenodd" clip-rule="evenodd" fill="none" d="M960-480v-324l189,324H960z"/>
<path fill="#FFFFFF" d="M41.9,45.2V30.8c0-3.9-3.1-7-6.8-7H24.8V12.1c2.5-0.8,4.3-3.1,4.3-5.9c0-3.4-2.7-6.2-6-6.2
	c-3.3,0-6,2.8-6,6.2c0,2.8,1.8,5.1,4.3,5.9v11.7H11.1c-3.8,0-6.8,3.2-6.8,7v14.3C1.8,45.9,0,48.3,0,51.1c0,3.4,2.7,6.2,6,6.2
	c3.3,0,6-2.8,6-6.2c0-2.8-1.8-5.2-4.3-5.9V30.8c0-1.9,1.5-3.5,3.4-3.5h10.3v17.9c-2.5,0.8-4.3,3.1-4.3,5.9c0,3.4,2.7,6.2,6,6.2
	c3.3,0,6-2.8,6-6.2c0-2.8-1.8-5.1-4.3-5.9V27.3h10.3c1.9,0,3.4,1.6,3.4,3.5v14.3c-2.5,0.8-4.3,3.1-4.3,5.9c0,3.4,2.7,6.2,6,6.2
	c3.3,0,6-2.8,6-6.2C46.2,48.3,44.4,45.9,41.9,45.2z M20.5,6.2c0-1.5,1.2-2.6,2.6-2.6c1.4,0,2.6,1.2,2.6,2.6c0,1.5-1.2,2.6-2.6,2.6
	C21.7,8.8,20.5,7.6,20.5,6.2z M8.6,51.1c0,1.5-1.2,2.6-2.6,2.6c-1.4,0-2.6-1.2-2.6-2.6c0-1.5,1.2-2.6,2.6-2.6
	C7.4,48.4,8.6,49.6,8.6,51.1z M25.6,51.1c0,1.5-1.2,2.6-2.6,2.6c-1.4,0-2.6-1.2-2.6-2.6c0-1.5,1.2-2.6,2.6-2.6
	C24.5,48.5,25.6,49.6,25.6,51.1z M40.2,53.7c-1.4,0-2.6-1.2-2.6-2.6c0-1.5,1.2-2.6,2.6-2.6c1.4,0,2.6,1.2,2.6,2.6
	C42.7,52.5,41.6,53.7,40.2,53.7z"/>
</svg>
