<?xml version="1.0" encoding="utf-8"?>
<!-- Generator: Adobe Illustrator 17.1.0, SVG Export Plug-In . SVG Version: 6.00 Build 0)  -->
<!DOCTYPE svg PUBLIC "-//W3C//DTD SVG 1.1//EN" "http://www.w3.org/Graphics/SVG/1.1/DTD/svg11.dtd">
<svg version="1.1" id="Layer_1" xmlns="http://www.w3.org/2000/svg" xmlns:xlink="http://www.w3.org/1999/xlink" x="0px" y="0px"
	 viewBox="0 0 50 58" enable-background="new 0 0 50 58" xml:space="preserve">
<path fill-rule="evenodd" clip-rule="evenodd" fill="none" d="M960-172v-324l189,324H960z"/>
<path fill="#FFFFFF" d="M25,0C11.2,0,0,5.3,0,11.8v34.4h0c0,0,0,0,0,0C0,52.7,11.2,58,25,58c13.8,0,25-5.3,25-11.8c0,0,0,0,0,0h0
	V11.8C50,5.3,38.8,0,25,0z M25,3.6c13.1,0,21.4,4.8,21.4,8.2h0V12c-0.4,3.3-8.6,7.9-21.4,7.9c-13.1,0-21.4-4.8-21.4-8.2
	C3.6,8.5,11.9,3.6,25,3.6z M46.4,37.2c-3.4,3.4-11.2,6.3-21.4,6.3c-10.2,0-18.1-2.9-21.5-6.4v-8.4c4.4,3.4,12.3,5.7,21.5,5.7
	c9.1,0,17.1-2.3,21.4-5.7V37.2z M46.4,26.3c-3.4,3.4-11.2,6.3-21.4,6.3c-10.2,0-18.1-2.9-21.5-6.4v-8.4c4.4,3.4,12.3,5.7,21.5,5.7
	c9.1,0,17.1-2.3,21.4-5.7V26.3z M46.4,46.2c0,3.3-8.3,8.2-21.4,8.2c-13.1,0-21.4-4.8-21.4-8.2h0v-0.1v-6v-0.6
	C7.9,43,15.9,45.3,25,45.3c9.1,0,17.1-2.3,21.4-5.7v0.6c0,0,0,0,0,0v2.4V46L46.4,46.2L46.4,46.2C46.4,46.2,46.4,46.2,46.4,46.2z"/>
</svg>
