<?xml version="1.0" encoding="utf-8"?>
<!-- Generator: Adobe Illustrator 17.1.0, SVG Export Plug-In . SVG Version: 6.00 Build 0)  -->
<!DOCTYPE svg PUBLIC "-//W3C//DTD SVG 1.1//EN" "http://www.w3.org/Graphics/SVG/1.1/DTD/svg11.dtd">
<svg version="1.1" id="Layer_1" xmlns="http://www.w3.org/2000/svg" xmlns:xlink="http://www.w3.org/1999/xlink" x="0px" y="0px"
	 viewBox="0 0 155.9 155.9" enable-background="new 0 0 155.9 155.9" xml:space="preserve">
<circle fill="none" stroke="#333" stroke-width="4" stroke-miterlimit="10" cx="62.7" cy="28" r="9.6"/>
<circle fill="none" stroke="#333" stroke-width="4" stroke-miterlimit="10" cx="122" cy="128.8" r="9.6"/>
<path fill="#333" d="M44.5,49.9l-2-5L4.1,112.4c0,0,24.2,8.3,48-32.5l-1.5-5.4c0,0-18.6,35.8-41.1,35.4L44.5,49.9z"/>
<path fill="#333" d="M23.3,94.2l13.2-21.2C36.5,72.9,38.7,89.1,23.3,94.2z"/>
<path fill="none" stroke="#333" stroke-width="4" stroke-miterlimit="10" d="M44.3,37.5c0,0-11.2-17.4,7.1-28.4S79,16.6,79,16.6
	l61.3,102.1c0,0,10.7,17.3-7.6,27.6c-18.2,10.2-27.7-7.7-27.7-7.7L44.3,37.5z"/>
</svg>
