<?xml version="1.0" encoding="utf-8"?>
<!-- Generator: Adobe Illustrator 17.1.0, SVG Export Plug-In . SVG Version: 6.00 Build 0)  -->
<!DOCTYPE svg PUBLIC "-//W3C//DTD SVG 1.1//EN" "http://www.w3.org/Graphics/SVG/1.1/DTD/svg11.dtd">
<svg version="1.1" id="Layer_1" xmlns="http://www.w3.org/2000/svg" xmlns:xlink="http://www.w3.org/1999/xlink" x="0px" y="0px"
	 viewBox="0 0 51 61" enable-background="new 0 0 51 61" xml:space="preserve">
<path fill-rule="evenodd" clip-rule="evenodd" fill="none" d="M391-480v-324l189,324H391z"/>
<path fill="#FFFFFF" d="M45.5,30c-2.6,0-4.6,2.1-4.6,4.7c0,8.8-7.1,15.9-15.8,15.9c-8.7,0-15.8-7.2-15.8-15.9
	c0-8.1,6.1-14.9,13.9-15.8v7.4c0,0.7,0.4,1.4,1.1,1.7c0.2,0.1,0.5,0.2,0.7,0.2c0.5,0,0.9-0.2,1.3-0.5l13-12.2
	c0.4-0.4,0.6-0.9,0.6-1.4c0-0.5-0.2-1-0.6-1.4l-13-12.2c-0.5-0.5-1.3-0.6-2-0.3c-0.7,0.3-1.1,1-1.1,1.7v7.6C10.3,10.4,0,21.5,0,34.7
	C0,48.7,11.3,60,25.1,60c13.8,0,25.1-11.4,25.1-25.3C50.2,32.1,48.1,30,45.5,30z M26.9,6.2l8.4,7.9L26.9,22V6.2z M25.1,56.3
	c-11.8,0-21.4-9.7-21.4-21.6c0-11.2,8.6-20.5,19.5-21.5v1.9c-9.9,1-17.6,9.4-17.6,19.6c0,10.9,8.8,19.7,19.5,19.7
	c10.8,0,19.5-8.8,19.5-19.7c0-0.5,0.4-0.9,0.9-0.9c0.5,0,0.9,0.4,0.9,0.9C46.4,46.6,36.9,56.3,25.1,56.3z"/>
</svg>
