<?xml version="1.0" encoding="utf-8"?>
<!-- Generator: Adobe Illustrator 17.1.0, SVG Export Plug-In . SVG Version: 6.00 Build 0)  -->
<!DOCTYPE svg PUBLIC "-//W3C//DTD SVG 1.1//EN" "http://www.w3.org/Graphics/SVG/1.1/DTD/svg11.dtd">
<svg version="1.1" id="Layer_1" xmlns="http://www.w3.org/2000/svg" xmlns:xlink="http://www.w3.org/1999/xlink" x="0px" y="0px"
	 viewBox="0 0 58 58" enable-background="new 0 0 58 58" xml:space="preserve">
<path fill-rule="evenodd" clip-rule="evenodd" fill="none" d="M964-338v-324l189,324H964z"/>
<path fill="#FFFFFF" d="M52.6,0H5.4C2.4,0,0,2.4,0,5.4v47.2c0,3,2.4,5.4,5.4,5.4h47.1c3,0,5.4-2.4,5.4-5.4V5.4C58,2.4,55.6,0,52.6,0
	z M5.4,3.6h47.1c1,0,1.8,0.8,1.8,1.8v37h-6.1l-6.4-13.4c-0.3-0.6-0.8-0.9-1.4-1c-0.6-0.1-1.2,0.2-1.6,0.7l-4.1,5.2L24.9,18
	c-0.3-0.6-1-0.9-1.6-0.9c-0.7,0-1.3,0.4-1.5,1L9.8,42.5H3.6v-37C3.6,4.4,4.4,3.6,5.4,3.6z M13.8,42.5l9.7-19.7L32.9,38
	c0.3,0.5,0.8,0.8,1.4,0.9c0.6,0,1.2-0.2,1.5-0.7l3.9-4.9l4.4,9.2H13.8z M52.6,54.4H5.4c-1,0-1.8-0.8-1.8-1.8v-6.5h50.7v6.5
	C54.4,53.6,53.6,54.4,52.6,54.4z"/>
<path fill="#FFFFFF" d="M41.7,23.5c4,0,7.2-3.2,7.2-7.2S45.7,9,41.7,9c-4,0-7.2,3.2-7.2,7.2S37.7,23.5,41.7,23.5z M41.7,12.7
	c2,0,3.6,1.6,3.6,3.6s-1.6,3.6-3.6,3.6c-2,0-3.6-1.6-3.6-3.6S39.7,12.7,41.7,12.7z"/>
</svg>
